<?xml version="1.0" encoding="utf-8"?>
<!-- Generator: Adobe Illustrator 19.0.0, SVG Export Plug-In . SVG Version: 6.00 Build 0)  -->
<svg version="1.1" xmlns="http://www.w3.org/2000/svg" xmlns:xlink="http://www.w3.org/1999/xlink" x="0px" y="0px"
	 viewBox="0 0 1000 1000" enable-background="new 0 0 1000 1000" xml:space="preserve">
<g id="bg" display="none">
	<rect id="XMLID_11_" display="inline" fill="#322D4C" width="1000" height="1000"/>
</g>
<g id="LogowithTextWhite" display="none">
	
		<text id="XMLID_14_" transform="matrix(1 0 0 1 108.6787 876.5148)" display="inline" fill="#FFFFFF" font-family="'ArialRoundedMTBold'" font-size="215.9027px">Khobar</text>
	
		<line id="XMLID_3_" display="inline" fill="none" stroke="#FFFFFF" stroke-width="3" stroke-miterlimit="10" x1="122.3" y1="890.2" x2="887.5" y2="890.2"/>
	
		<text id="XMLID_1_" transform="matrix(1 0 0 1 221.4766 933.9434)" display="inline" fill="#FFFFFF" font-family="'ArialRoundedMTBold'" font-size="30.6956px">HARDWARE &amp; CONSTRUCTION SUPPLY</text>
	<g id="XMLID_21_" display="inline">
		<path id="XMLID_22_" fill="#FFFFFF" d="M471.1,253.2v170.4L664.4,222c9.3-9.7,26.4-27.7,21.6-44c-5.8-19.7-18.3-30.3-18.3-30.3
			s71.9,50,80.7,58.3c8.7,8.3,11.8,19.2,11.8,31.1c0,14.4-6.1,27.9-20.9,42L619.6,392.4L757.5,590c9.7,13.7,17,25.7,21.9,36
			c4.9,10.3,7.3,20.3,7.3,30c0,10.8-4.3,20.2-12.8,28.2c-8.5,8-20.1,11.9-34.6,11.9c-13.7,0-24.9-2.9-33.5-8.8
			c-8.6-5.9-15.9-13.6-21.9-23.4c-6-9.7-11.3-18.6-15.9-26.5l-116.4-179l-80.6,77.3v100.5c0,20.3-4.6,35.4-13.9,45.3
			c-9.3,9.8-15.3,14.2-29.9,14.2c-8.4,0-22.1-2.1-30.1-6c-90.7-44.2-89.4-64.2-89.4-64.2s32.5,21,50.8,18.8
			c12-1.5,14.1-14,14.1-29.5V253.2c0-19.9,4.4-34.8,13.1-44.8c8.7-9.9,20.6-14.9,35.6-14.9c14.8,0,26.8,4.9,36,14.8
			C466.5,218.1,471.1,233,471.1,253.2z"/>
	</g>
	<path id="XMLID_13_" display="inline" fill="none" stroke="#FFFFFF" stroke-width="30" stroke-miterlimit="10" d="M432.8,680
		c-131.9,2.8-280.4-138.2-280.4-310.8S292.3,56.9,464.8,56.9s256.1,117.7,277.7,166.2"/>
	<path id="XMLID_25_" display="inline" fill="none" stroke="#FFFFFF" stroke-width="3" stroke-miterlimit="10" d="M649.9,196.6
		l1.2-3.3c3-7.8-1.6-16.4-10.2-19.1L564,150c-8.6-2.7-18,1.5-21,9.3l-1.2,3.3c-3,7.8,1.6,16.4,10.2,19.1l76.9,24.3
		C637.4,208.6,646.9,204.5,649.9,196.6z"/>
	<polygon id="XMLID_18_" display="inline" fill="none" stroke="#FFFFFF" stroke-width="3" stroke-miterlimit="10" points="
		538.6,171.5 545.7,152.6 490.3,135.1 483.1,154 	"/>
	<path id="XMLID_17_" display="inline" fill="none" stroke="#FFFFFF" stroke-width="3" stroke-miterlimit="10" d="M454.6,180.2
		l1.6-4.3c1.1-2.9-0.6-6.2-3.8-7.2l-11.8-3.7c-3.2-1-6.8,0.6-7.9,3.5l-1.6,4.3c-1.1,2.9,0.6,6.2,3.8,7.2l11.8,3.7
		C449.9,184.7,453.4,183.1,454.6,180.2z"/>
	<path id="XMLID_9_" display="inline" fill="none" stroke="#FFFFFF" stroke-width="3" stroke-miterlimit="10" d="M488.6,130.9
		l-10.5,27.5l-15.7-5l-5.1,13.5l-18.9-6l0.5-14.9l10.5-27.5c0,0,13.7-29.9,38.7-30.7s1.7,0.6-3.9,7.8c-5.7,7.2-18.9,25.6-12,29.8
		L488.6,130.9z"/>
	
		<line id="XMLID_6_" display="inline" fill="none" stroke="#FFFFFF" stroke-width="3" stroke-miterlimit="10" x1="496.6" y1="147.6" x2="536.4" y2="160.2"/>
	
		<line id="XMLID_5_" display="inline" fill="none" stroke="#FFFFFF" stroke-width="3" stroke-miterlimit="10" x1="648.1" y1="184.9" x2="641" y2="203.7"/>
	<polyline id="XMLID_4_" display="inline" fill="none" stroke="#FFFFFF" stroke-width="3" stroke-miterlimit="10" points="
		471.7,129.2 483,132.8 477.4,147.5 	"/>
	<path id="XMLID_20_" display="inline" fill="none" stroke="#FFFFFF" stroke-width="3" stroke-miterlimit="10" d="M288.6,537.5h-9.4
		c-4.8,0-8.8-3.9-8.8-8.8v-81.9h26.9v81.9C297.4,533.6,293.5,537.5,288.6,537.5z"/>
	<path id="XMLID_19_" display="inline" fill="none" stroke="#FFFFFF" stroke-width="3" stroke-miterlimit="10" d="M298.1,446.8
		h-28.3c-2.1,0-3.8-1.7-3.8-3.8v-4.1c0-2.1,1.7-3.8,3.8-3.8h28.3c2.1,0,3.8,1.7,3.8,3.8v4.1C301.9,445.1,300.2,446.8,298.1,446.8z"
		/>
	<path id="XMLID_16_" display="inline" fill="none" stroke="#FFFFFF" stroke-width="3" stroke-miterlimit="10" d="M292.7,435.1
		h-17.5v-30.2c0-3.2,2.6-5.7,5.7-5.7h6.1c3.2,0,5.7,2.6,5.7,5.7V435.1z"/>
	<path id="XMLID_15_" display="inline" fill="none" stroke="#FFFFFF" stroke-width="3" stroke-miterlimit="10" d="M275.2,417.2
		l-37.7-10.7c-4.5-1.3-7-6.1-5.4-10.5l47.9-136.2c1.3-3.8,6.8-3.8,8.1,0l0,0l0.7,1.9L335.9,396c1.5,4.4-0.9,9.2-5.4,10.5l-37.7,10.7
		"/>
	<path id="XMLID_8_" display="inline" fill="none" stroke="#FFFFFF" stroke-width="3" stroke-miterlimit="10" d="M260.8,404.9
		l-15.9-4.4c-2.8-0.8-4.4-3.8-3.5-6.6l35.9-104"/>
	<path id="XMLID_7_" display="inline" fill="none" stroke="#FFFFFF" stroke-width="3" stroke-miterlimit="10" d="M276.7,457.5v69
		c0,3,2.5,5.5,5.5,5.5h3.3"/>
</g>
<g id="LogoOnlyWhite" display="none">
	<g id="XMLID_2_" display="inline">
		<path id="XMLID_10_" fill="#FFFFFF" d="M487,147.1C268.3,147,166.3,325.7,166.3,478.4c0,196.6,171,327.4,273.9,327.4
			c3.7,0,25.8-1.2,35.7-6.9c13.5-7.8,14.9-20.6,14.9-20.6c-189.4-4.9-290-168.4-290-299.9c0-182.7,137.6-296.7,286.2-296.7
			c117.4,0,224.5,63,275.4,164.8c19.3,38.8,8.8,13.6,14,33.1c0,0,8.6-11.2,11.2-18.2c6-16,20.2-34.6-25.7-95.1
			C708.5,196,620,147.2,487,147.1z"/>
		<g id="XMLID_38_">
			<path id="XMLID_39_" fill="#FFFFFF" d="M501.5,360.6V531l193.3-201.6c9.3-9.7,25.5-27.5,21.6-44c-3.1-13.1-21.8-26.7-21.8-26.7
				s75.4,46.3,84.2,54.6c8.7,8.3,15.5,12.1,15.5,24c0,14.4-9.9,35-24.7,49.1L650.1,499.9L788,697.5c9.7,13.7,17,25.7,21.9,36
				c4.9,10.3,7.3,20.3,7.3,30c0,10.8-4.3,20.2-12.8,28.2c-8.5,8-20.1,11.9-34.6,11.9c-13.7,0-24.9-2.9-33.5-8.8
				c-8.6-5.9-15.9-13.6-21.9-23.4c-6-9.7-11.3-18.6-15.9-26.5l-116.4-179l-80.6,77.3v100.5c0,20.3-4.6,35.4-13.9,45.3
				c-9.3,9.8-15.3,14.2-29.9,14.2c-8.4,0-22.1-2.1-30.1-6c-90.7-44.2-89.4-64.2-89.4-64.2s32.5,21,50.8,18.8
				c12-1.5,14.1-14,14.1-29.5V360.6c0-19.9,4.4-34.8,13.1-44.8c8.7-9.9,20.6-14.9,35.6-14.9c14.8,0,26.8,4.9,36,14.8
				C496.9,325.5,501.5,340.5,501.5,360.6z"/>
		</g>
		<path id="XMLID_36_" fill="none" stroke="#FFFFFF" stroke-width="3" stroke-miterlimit="10" d="M680.3,304.1l1.2-3.3
			c3-7.8-1.6-16.4-10.2-19.1l-76.9-24.3c-8.6-2.7-18,1.5-21,9.3l-1.2,3.3c-3,7.8,1.6,16.4,10.2,19.1l76.9,24.3
			C667.9,316.1,677.3,311.9,680.3,304.1z"/>
		<polygon id="XMLID_35_" fill="none" stroke="#FFFFFF" stroke-width="3" stroke-miterlimit="10" points="569,278.9 576.2,260.1 
			520.7,242.6 513.5,261.4 		"/>
		<path id="XMLID_34_" fill="none" stroke="#FFFFFF" stroke-width="3" stroke-miterlimit="10" d="M485,287.6l1.6-4.3
			c1.1-2.9-0.6-6.2-3.8-7.2l-11.8-3.7c-3.2-1-6.8,0.6-7.9,3.5l-1.6,4.3c-1.1,2.9,0.6,6.2,3.8,7.2l11.8,3.7
			C480.3,292.1,483.9,290.6,485,287.6z"/>
		<path id="XMLID_33_" fill="none" stroke="#FFFFFF" stroke-width="3" stroke-miterlimit="10" d="M519.1,238.4l-10.5,27.5l-15.7-5
			l-5.1,13.5l-18.9-6l0.5-14.9l10.5-27.5c0,0,13.7-29.9,38.7-30.7c25.1-0.8,1.7,0.6-3.9,7.8c-5.7,7.2-18.9,25.6-12,29.8L519.1,238.4
			z"/>
		
			<line id="XMLID_32_" fill="none" stroke="#FFFFFF" stroke-width="3" stroke-miterlimit="10" x1="527" y1="255.1" x2="566.8" y2="267.7"/>
		
			<line id="XMLID_31_" fill="none" stroke="#FFFFFF" stroke-width="3" stroke-miterlimit="10" x1="678.6" y1="292.3" x2="671.4" y2="311.2"/>
		<polyline id="XMLID_30_" fill="none" stroke="#FFFFFF" stroke-width="3" stroke-miterlimit="10" points="502.1,236.7 513.4,240.3 
			507.9,254.9 		"/>
		<path id="XMLID_29_" fill="none" stroke="#FFFFFF" stroke-width="3" stroke-miterlimit="10" d="M319.1,645h-9.4
			c-4.8,0-8.8-3.9-8.8-8.8v-81.9h26.9v81.9C327.9,641.1,323.9,645,319.1,645z"/>
		<path id="XMLID_28_" fill="none" stroke="#FFFFFF" stroke-width="3" stroke-miterlimit="10" d="M328.5,554.3h-28.3
			c-2.1,0-3.8-1.7-3.8-3.8v-4.1c0-2.1,1.7-3.8,3.8-3.8h28.3c2.1,0,3.8,1.7,3.8,3.8v4.1C332.3,552.6,330.6,554.3,328.5,554.3z"/>
		<path id="XMLID_27_" fill="none" stroke="#FFFFFF" stroke-width="3" stroke-miterlimit="10" d="M323.1,542.6h-17.5v-30.2
			c0-3.2,2.6-5.7,5.7-5.7h6.1c3.2,0,5.7,2.6,5.7,5.7V542.6z"/>
		<path id="XMLID_26_" fill="none" stroke="#FFFFFF" stroke-width="3" stroke-miterlimit="10" d="M305.6,524.6L267.9,514
			c-4.5-1.3-7-6.1-5.4-10.5l47.9-136.2c1.3-3.8,6.8-3.8,8.1,0l0,0l0.7,1.9l47.2,134.3c1.5,4.4-0.9,9.2-5.4,10.5l-37.7,10.7"/>
		<path id="XMLID_24_" fill="none" stroke="#FFFFFF" stroke-width="3" stroke-miterlimit="10" d="M291.3,512.4l-15.9-4.4
			c-2.8-0.8-4.4-3.8-3.5-6.6l35.9-104"/>
		<path id="XMLID_12_" fill="none" stroke="#FFFFFF" stroke-width="3" stroke-miterlimit="10" d="M307.1,564.9v69
			c0,3,2.5,5.5,5.5,5.5h3.3"/>
	</g>
</g>
<g id="TextOnlyWhite" display="none">
	<g id="XMLID_41_" display="inline">
		<path id="XMLID_42_" fill="#FFFFFF" d="M67.8,414.2v67.1l76.1-79.4c3.7-3.8,6.8-6.7,9.3-8.5c2.6-1.8,6-2.7,10.2-2.7
			c5.6,0,10.1,1.6,13.5,4.9c3.4,3.3,5.2,7.2,5.2,11.9c0,5.7-2.9,11.3-8.7,16.8L126.3,469l54.3,77.8c3.8,5.4,6.7,10.1,8.6,14.2
			c1.9,4,2.9,8,2.9,11.8c0,4.3-1.7,8-5,11.1c-3.4,3.1-7.9,4.7-13.6,4.7c-5.4,0-9.8-1.2-13.2-3.5c-3.4-2.3-6.3-5.4-8.6-9.2
			c-2.4-3.8-4.4-7.3-6.3-10.4L99.5,495l-31.7,30.4V565c0,8-1.8,14-5.5,17.8c-3.7,3.9-8.4,5.8-14.1,5.8c-3.3,0-6.5-0.9-9.5-2.6
			c-3-1.7-5.4-4.1-7.1-7.1c-1.2-2.4-2-5.3-2.2-8.5c-0.3-3.2-0.4-7.9-0.4-14V414.2c0-7.8,1.7-13.7,5.2-17.6c3.4-3.9,8.1-5.9,14-5.9
			c5.8,0,10.6,1.9,14.2,5.8C66,400.4,67.8,406.3,67.8,414.2z"/>
		<path id="XMLID_44_" fill="#FFFFFF" d="M259.1,412.4v52.9c4.5-5.2,8.9-9.4,13.3-12.4c4.3-3,9.1-5.3,14.3-6.9
			c5.2-1.5,10.8-2.3,16.8-2.3c9.1,0,17.1,1.9,24.1,5.7c7,3.8,12.5,9.4,16.5,16.7c2.5,4.3,4.2,9,5.1,14.3c0.9,5.3,1.3,11.3,1.3,18.2
			V567c0,7.1-1.6,12.5-4.9,16.2c-3.3,3.7-7.6,5.5-13,5.5c-11.8,0-17.6-7.2-17.6-21.7v-60.2c0-11.4-1.7-20.2-5.1-26.3
			c-3.4-6.1-9.8-9.2-19.3-9.2c-6.4,0-12.1,1.8-17.2,5.4c-5.1,3.6-8.9,8.6-11.4,14.8c-1.9,5.3-2.9,14.8-2.9,28.3V567
			c0,7.1-1.6,12.4-4.8,16.1c-3.2,3.7-7.6,5.5-13.3,5.5c-11.8,0-17.6-7.2-17.6-21.7V412.4c0-7.2,1.5-12.6,4.6-16.3
			c3.1-3.6,7.4-5.4,13-5.4c5.7,0,10.1,1.8,13.3,5.5C257.5,399.8,259.1,405.2,259.1,412.4z"/>
		<path id="XMLID_46_" fill="#FFFFFF" d="M519.2,516.2c0,10.6-1.7,20.4-5,29.4c-3.3,9-8.1,16.7-14.4,23.1
			c-6.3,6.4-13.8,11.4-22.5,14.8c-8.7,3.4-18.5,5.2-29.4,5.2c-10.8,0-20.5-1.7-29.1-5.2c-8.6-3.5-16.1-8.5-22.4-15
			c-6.3-6.5-11.1-14.1-14.4-23c-3.3-8.8-4.9-18.6-4.9-29.3c0-10.8,1.7-20.7,5-29.6c3.3-9,8.1-16.6,14.2-23
			c6.2-6.4,13.7-11.2,22.5-14.7c8.8-3.4,18.5-5.2,29.1-5.2c10.8,0,20.6,1.7,29.4,5.2c8.8,3.5,16.3,8.4,22.6,14.9
			c6.3,6.4,11,14.1,14.3,23C517.6,495.7,519.2,505.5,519.2,516.2z M483.4,516.2c0-14.5-3.2-25.9-9.6-33.9
			c-6.4-8.1-15-12.1-25.8-12.1c-7,0-13.1,1.8-18.4,5.4c-5.3,3.6-9.4,8.9-12.3,16c-2.9,7.1-4.3,15.3-4.3,24.7
			c0,9.3,1.4,17.5,4.2,24.4c2.8,7,6.9,12.3,12.1,16c5.3,3.7,11.5,5.5,18.6,5.5c10.8,0,19.4-4.1,25.8-12.2
			C480.2,541.8,483.4,530.5,483.4,516.2z"/>
		<path id="XMLID_49_" fill="#FFFFFF" d="M580.2,411.1v54.4c6.7-7,13.5-12.3,20.5-16c7-3.7,15.6-5.5,25.9-5.5
			c11.8,0,22.2,2.8,31.1,8.4c8.9,5.6,15.8,13.8,20.8,24.4c4.9,10.7,7.4,23.3,7.4,37.9c0,10.8-1.4,20.7-4.1,29.7
			c-2.7,9-6.7,16.8-11.9,23.4c-5.2,6.6-11.6,11.7-19,15.3c-7.4,3.6-15.6,5.4-24.6,5.4c-5.5,0-10.6-0.7-15.5-2
			c-4.8-1.3-8.9-3-12.3-5.2c-3.4-2.1-6.3-4.3-8.7-6.6c-2.4-2.3-5.5-5.7-9.5-10.2v3.5c0,6.7-1.6,11.8-4.8,15.2
			c-3.2,3.4-7.3,5.2-12.3,5.2c-5,0-9.1-1.7-12.1-5.2c-3-3.4-4.5-8.5-4.5-15.2V412.6c0-7.2,1.5-12.7,4.4-16.4c2.9-3.7,7-5.5,12.2-5.5
			c5.5,0,9.7,1.8,12.7,5.3C578.7,399.5,580.2,404.5,580.2,411.1z M581.9,516.9c0,14.2,3.2,25.1,9.7,32.7c6.5,7.6,15,11.4,25.5,11.4
			c9,0,16.7-3.9,23.2-11.7c6.5-7.8,9.7-19,9.7-33.5c0-9.4-1.4-17.5-4-24.3c-2.7-6.8-6.5-12-11.5-15.7c-5-3.7-10.8-5.5-17.4-5.5
			c-6.8,0-12.8,1.9-18.1,5.5c-5.3,3.7-9.5,9.1-12.5,16.1C583.4,499,581.9,507.3,581.9,516.9z"/>
		<path id="XMLID_52_" fill="#FFFFFF" d="M804.5,568.5c-8.6,6.7-17,11.7-25,15.1c-8.1,3.3-17.1,5-27.1,5c-9.1,0-17.2-1.8-24.1-5.4
			c-6.9-3.6-12.3-8.5-16-14.7c-3.7-6.2-5.6-12.9-5.6-20.1c0-9.7,3.1-18.1,9.3-24.9c6.2-6.9,14.7-11.5,25.5-13.8
			c2.3-0.5,7.9-1.7,16.8-3.5c9-1.8,16.6-3.5,23-5c6.4-1.5,13.3-3.4,20.8-5.5c-0.4-9.4-2.3-16.3-5.7-20.7c-3.4-4.4-10.3-6.6-20.8-6.6
			c-9.1,0-15.9,1.3-20.4,3.8c-4.6,2.5-8.5,6.3-11.8,11.4c-3.3,5-5.6,8.4-6.9,10c-1.4,1.6-4.2,2.4-8.7,2.4c-4,0-7.5-1.3-10.4-3.9
			c-2.9-2.6-4.4-5.9-4.4-9.9c0-6.3,2.2-12.4,6.7-18.3c4.4-5.9,11.4-10.8,20.8-14.6c9.4-3.8,21.1-5.7,35.1-5.7c15.7,0,28,1.9,37,5.5
			c9,3.7,15.3,9.6,19,17.6c3.7,8,5.5,18.6,5.5,31.9c0,8.4,0,15.5-0.1,21.3c0,5.8-0.1,12.3-0.2,19.5c0,6.7,1.1,13.7,3.3,21
			c2.2,7.3,3.3,11.9,3.3,14c0,3.7-1.7,7-5.2,10c-3.4,3-7.3,4.5-11.7,4.5c-3.7,0-7.3-1.7-10.8-5.2C812.3,580,808.5,575.1,804.5,568.5
			z M802.1,516.9c-5.2,1.9-12.8,3.9-22.8,6.1c-10,2.1-16.9,3.7-20.7,4.7c-3.8,1-7.5,3-11,5.9c-3.5,2.9-5.2,7-5.2,12.2
			c0,5.4,2,10,6.1,13.8c4.1,3.8,9.4,5.7,16.1,5.7c7.1,0,13.6-1.5,19.5-4.6c6-3.1,10.3-7.1,13.1-11.9c3.2-5.4,4.8-14.3,4.8-26.6
			V516.9z"/>
		<path id="XMLID_55_" fill="#FFFFFF" d="M908.7,537.2V567c0,7.2-1.7,12.6-5.1,16.3c-3.4,3.6-7.7,5.4-12.9,5.4
			c-5.1,0-9.4-1.8-12.7-5.5c-3.3-3.7-5-9.1-5-16.2v-99.2c0-16,5.8-24,17.4-24c5.9,0,10.2,1.9,12.8,5.6c2.6,3.7,4,9.3,4.3,16.6
			c4.3-7.3,8.6-12.8,13.1-16.6c4.5-3.7,10.5-5.6,18-5.6c7.5,0,14.8,1.9,21.8,5.6c7.1,3.7,10.6,8.7,10.6,14.9c0,4.4-1.5,7.9-4.5,10.8
			c-3,2.8-6.2,4.2-9.7,4.2c-1.3,0-4.5-0.8-9.5-2.4c-5-1.6-9.4-2.4-13.3-2.4c-5.2,0-9.5,1.4-12.8,4.1c-3.3,2.7-5.9,6.8-7.7,12.2
			c-1.8,5.4-3.1,11.8-3.8,19.3C909,517.4,908.7,526.5,908.7,537.2z"/>
	</g>
</g>
<g id="TextOnlyDark" display="none">
	<g id="XMLID_37_" display="inline">
		<path id="XMLID_70_" fill="#322D4C" d="M67.8,414.2v67.1l76.1-79.4c3.7-3.8,6.8-6.7,9.3-8.5c2.6-1.8,6-2.7,10.2-2.7
			c5.6,0,10.1,1.6,13.5,4.9c3.4,3.3,5.2,7.2,5.2,11.9c0,5.7-2.9,11.3-8.7,16.8L126.3,469l54.3,77.8c3.8,5.4,6.7,10.1,8.6,14.2
			c1.9,4,2.9,8,2.9,11.8c0,4.3-1.7,8-5,11.1c-3.4,3.1-7.9,4.7-13.6,4.7c-5.4,0-9.8-1.2-13.2-3.5c-3.4-2.3-6.3-5.4-8.6-9.2
			c-2.4-3.8-4.4-7.3-6.3-10.4L99.5,495l-31.7,30.4V565c0,8-1.8,14-5.5,17.8c-3.7,3.9-8.4,5.8-14.1,5.8c-3.3,0-6.5-0.9-9.5-2.6
			c-3-1.7-5.4-4.1-7.1-7.1c-1.2-2.4-2-5.3-2.2-8.5c-0.3-3.2-0.4-7.9-0.4-14V414.2c0-7.8,1.7-13.7,5.2-17.6c3.4-3.9,8.1-5.9,14-5.9
			c5.8,0,10.6,1.9,14.2,5.8C66,400.4,67.8,406.3,67.8,414.2z"/>
		<path id="XMLID_68_" fill="#322D4C" d="M259.1,412.4v52.9c4.5-5.2,8.9-9.4,13.3-12.4c4.3-3,9.1-5.3,14.3-6.9
			c5.2-1.5,10.8-2.3,16.8-2.3c9.1,0,17.1,1.9,24.1,5.7c7,3.8,12.5,9.4,16.5,16.7c2.5,4.3,4.2,9,5.1,14.3c0.9,5.3,1.3,11.3,1.3,18.2
			V567c0,7.1-1.6,12.5-4.9,16.2c-3.3,3.7-7.6,5.5-13,5.5c-11.8,0-17.6-7.2-17.6-21.7v-60.2c0-11.4-1.7-20.2-5.1-26.3
			c-3.4-6.1-9.8-9.2-19.3-9.2c-6.4,0-12.1,1.8-17.2,5.4c-5.1,3.6-8.9,8.6-11.4,14.8c-1.9,5.3-2.9,14.8-2.9,28.3V567
			c0,7.1-1.6,12.4-4.8,16.1c-3.2,3.7-7.6,5.5-13.3,5.5c-11.8,0-17.6-7.2-17.6-21.7V412.4c0-7.2,1.5-12.6,4.6-16.3
			c3.1-3.6,7.4-5.4,13-5.4c5.7,0,10.1,1.8,13.3,5.5C257.5,399.8,259.1,405.2,259.1,412.4z"/>
		<path id="XMLID_65_" fill="#322D4C" d="M519.2,516.2c0,10.6-1.7,20.4-5,29.4c-3.3,9-8.1,16.7-14.4,23.1
			c-6.3,6.4-13.8,11.4-22.5,14.8c-8.7,3.4-18.5,5.2-29.4,5.2c-10.8,0-20.5-1.7-29.1-5.2c-8.6-3.5-16.1-8.5-22.4-15
			c-6.3-6.5-11.1-14.1-14.4-23c-3.3-8.8-4.9-18.6-4.9-29.3c0-10.8,1.7-20.7,5-29.6c3.3-9,8.1-16.6,14.2-23
			c6.2-6.4,13.7-11.2,22.5-14.7c8.8-3.4,18.5-5.2,29.1-5.2c10.8,0,20.6,1.7,29.4,5.2c8.8,3.5,16.3,8.4,22.6,14.9
			c6.3,6.4,11,14.1,14.3,23C517.6,495.7,519.2,505.5,519.2,516.2z M483.4,516.2c0-14.5-3.2-25.9-9.6-33.9
			c-6.4-8.1-15-12.1-25.8-12.1c-7,0-13.1,1.8-18.4,5.4c-5.3,3.6-9.4,8.9-12.3,16c-2.9,7.1-4.3,15.3-4.3,24.7
			c0,9.3,1.4,17.5,4.2,24.4c2.8,7,6.9,12.3,12.1,16c5.3,3.7,11.5,5.5,18.6,5.5c10.8,0,19.4-4.1,25.8-12.2
			C480.2,541.8,483.4,530.5,483.4,516.2z"/>
		<path id="XMLID_62_" fill="#322D4C" d="M580.2,411.1v54.4c6.7-7,13.5-12.3,20.5-16c7-3.7,15.6-5.5,25.9-5.5
			c11.8,0,22.2,2.8,31.1,8.4c8.9,5.6,15.8,13.8,20.8,24.4c4.9,10.7,7.4,23.3,7.4,37.9c0,10.8-1.4,20.7-4.1,29.7
			c-2.7,9-6.7,16.8-11.9,23.4c-5.2,6.6-11.6,11.7-19,15.3c-7.4,3.6-15.6,5.4-24.6,5.4c-5.5,0-10.6-0.7-15.5-2
			c-4.8-1.3-8.9-3-12.3-5.2c-3.4-2.1-6.3-4.3-8.7-6.6c-2.4-2.3-5.5-5.7-9.5-10.2v3.5c0,6.7-1.6,11.8-4.8,15.2
			c-3.2,3.4-7.3,5.2-12.3,5.2c-5,0-9.1-1.7-12.1-5.2c-3-3.4-4.5-8.5-4.5-15.2V412.6c0-7.2,1.5-12.7,4.4-16.4c2.9-3.7,7-5.5,12.2-5.5
			c5.5,0,9.7,1.8,12.7,5.3C578.7,399.5,580.2,404.5,580.2,411.1z M581.9,516.9c0,14.2,3.2,25.1,9.7,32.7c6.5,7.6,15,11.4,25.5,11.4
			c9,0,16.7-3.9,23.2-11.7c6.5-7.8,9.7-19,9.7-33.5c0-9.4-1.4-17.5-4-24.3c-2.7-6.8-6.5-12-11.5-15.7c-5-3.7-10.8-5.5-17.4-5.5
			c-6.8,0-12.8,1.9-18.1,5.5c-5.3,3.7-9.5,9.1-12.5,16.1C583.4,499,581.9,507.3,581.9,516.9z"/>
		<path id="XMLID_59_" fill="#322D4C" d="M804.5,568.5c-8.6,6.7-17,11.7-25,15.1c-8.1,3.3-17.1,5-27.1,5c-9.1,0-17.2-1.8-24.1-5.4
			c-6.9-3.6-12.3-8.5-16-14.7c-3.7-6.2-5.6-12.9-5.6-20.1c0-9.7,3.1-18.1,9.3-24.9c6.2-6.9,14.7-11.5,25.5-13.8
			c2.3-0.5,7.9-1.7,16.8-3.5c9-1.8,16.6-3.5,23-5c6.4-1.5,13.3-3.4,20.8-5.5c-0.4-9.4-2.3-16.3-5.7-20.7c-3.4-4.4-10.3-6.6-20.8-6.6
			c-9.1,0-15.9,1.3-20.4,3.8c-4.6,2.5-8.5,6.3-11.8,11.4c-3.3,5-5.6,8.4-6.9,10c-1.4,1.6-4.2,2.4-8.7,2.4c-4,0-7.5-1.3-10.4-3.9
			c-2.9-2.6-4.4-5.9-4.4-9.9c0-6.3,2.2-12.4,6.7-18.3c4.4-5.9,11.4-10.8,20.8-14.6c9.4-3.8,21.1-5.7,35.1-5.7c15.7,0,28,1.9,37,5.5
			c9,3.7,15.3,9.6,19,17.6c3.7,8,5.5,18.6,5.5,31.9c0,8.4,0,15.5-0.1,21.3c0,5.8-0.1,12.3-0.2,19.5c0,6.7,1.1,13.7,3.3,21
			c2.2,7.3,3.3,11.9,3.3,14c0,3.7-1.7,7-5.2,10c-3.4,3-7.3,4.5-11.7,4.5c-3.7,0-7.3-1.7-10.8-5.2C812.3,580,808.5,575.1,804.5,568.5
			z M802.1,516.9c-5.2,1.9-12.8,3.9-22.8,6.1c-10,2.1-16.9,3.7-20.7,4.7c-3.8,1-7.5,3-11,5.9c-3.5,2.9-5.2,7-5.2,12.2
			c0,5.4,2,10,6.1,13.8c4.1,3.8,9.4,5.7,16.1,5.7c7.1,0,13.6-1.5,19.5-4.6c6-3.1,10.3-7.1,13.1-11.9c3.2-5.4,4.8-14.3,4.8-26.6
			V516.9z"/>
		<path id="XMLID_57_" fill="#322D4C" d="M908.7,537.2V567c0,7.2-1.7,12.6-5.1,16.3c-3.4,3.6-7.7,5.4-12.9,5.4
			c-5.1,0-9.4-1.8-12.7-5.5c-3.3-3.7-5-9.1-5-16.2v-99.2c0-16,5.8-24,17.4-24c5.9,0,10.2,1.9,12.8,5.6c2.6,3.7,4,9.3,4.3,16.6
			c4.3-7.3,8.6-12.8,13.1-16.6c4.5-3.7,10.5-5.6,18-5.6c7.5,0,14.8,1.9,21.8,5.6c7.1,3.7,10.6,8.7,10.6,14.9c0,4.4-1.5,7.9-4.5,10.8
			c-3,2.8-6.2,4.2-9.7,4.2c-1.3,0-4.5-0.8-9.5-2.4c-5-1.6-9.4-2.4-13.3-2.4c-5.2,0-9.5,1.4-12.8,4.1c-3.3,2.7-5.9,6.8-7.7,12.2
			c-1.8,5.4-3.1,11.8-3.8,19.3C909,517.4,908.7,526.5,908.7,537.2z"/>
	</g>
</g>
<g id="LogoWithTextDark" display="none">
	<g id="XMLID_160_" display="inline">
		<path id="XMLID_161_" fill="#322D4C" d="M145.8,751.7v54.2l61.5-64.1c3-3.1,5.5-5.4,7.5-6.9c2.1-1.5,4.8-2.2,8.3-2.2
			c4.5,0,8.1,1.3,10.9,4c2.8,2.6,4.2,5.9,4.2,9.6c0,4.6-2.4,9.1-7.1,13.6L193,795.9l43.9,62.8c3.1,4.4,5.4,8.2,7,11.4
			c1.5,3.3,2.3,6.4,2.3,9.5c0,3.4-1.4,6.4-4.1,9c-2.7,2.5-6.4,3.8-11,3.8c-4.4,0-7.9-0.9-10.6-2.8c-2.7-1.9-5.1-4.3-7-7.4
			s-3.6-5.9-5.1-8.4l-37-56.9l-25.6,24.6v31.9c0,6.5-1.5,11.3-4.4,14.4c-3,3.1-6.7,4.7-11.4,4.7c-2.7,0-5.2-0.7-7.7-2.1
			c-2.5-1.4-4.4-3.3-5.7-5.7c-1-2-1.6-4.3-1.8-6.9c-0.2-2.6-0.3-6.4-0.3-11.3V751.7c0-6.3,1.4-11.1,4.2-14.2
			c2.8-3.2,6.6-4.7,11.3-4.7c4.7,0,8.5,1.6,11.4,4.7C144.4,740.5,145.8,745.3,145.8,751.7z"/>
		<path id="XMLID_163_" fill="#322D4C" d="M300.3,750.2v42.7c3.7-4.2,7.2-7.6,10.7-10c3.5-2.5,7.3-4.3,11.5-5.5
			c4.2-1.2,8.8-1.8,13.6-1.8c7.3,0,13.8,1.5,19.5,4.6c5.7,3.1,10.1,7.6,13.3,13.5c2,3.4,3.4,7.3,4.1,11.5c0.7,4.3,1.1,9.2,1.1,14.7
			V875c0,5.8-1.3,10.1-4,13.1c-2.6,3-6.1,4.4-10.5,4.4c-9.5,0-14.2-5.8-14.2-17.5v-48.6c0-9.2-1.4-16.3-4.1-21.2
			c-2.7-5-7.9-7.4-15.6-7.4c-5.1,0-9.8,1.5-13.9,4.4c-4.1,2.9-7.2,6.9-9.2,12c-1.5,4.3-2.3,11.9-2.3,22.9V875c0,5.7-1.3,10-3.8,13
			c-2.6,3-6.1,4.5-10.7,4.5c-9.5,0-14.2-5.8-14.2-17.5V750.2c0-5.8,1.2-10.2,3.7-13.1c2.5-2.9,6-4.4,10.5-4.4
			c4.6,0,8.1,1.5,10.7,4.4C299,740.1,300.3,744.4,300.3,750.2z"/>
		<path id="XMLID_165_" fill="#322D4C" d="M510.3,834c0,8.6-1.3,16.5-4,23.7c-2.7,7.2-6.5,13.5-11.6,18.7c-5.1,5.2-11.1,9.2-18.1,12
			c-7,2.8-14.9,4.2-23.7,4.2c-8.7,0-16.6-1.4-23.5-4.2c-7-2.8-13-6.8-18.1-12.1c-5.1-5.2-9-11.4-11.6-18.6c-2.6-7.1-4-15-4-23.7
			c0-8.7,1.3-16.7,4-23.9c2.7-7.2,6.5-13.4,11.5-18.6c5-5.1,11-9.1,18.1-11.9c7.1-2.8,14.9-4.2,23.5-4.2c8.7,0,16.6,1.4,23.7,4.2
			c7.1,2.8,13.2,6.8,18.2,12c5.1,5.2,8.9,11.4,11.5,18.6C508.9,817.4,510.3,825.4,510.3,834z M481.4,834c0-11.7-2.6-20.9-7.7-27.4
			c-5.2-6.5-12.1-9.8-20.8-9.8c-5.6,0-10.6,1.5-14.9,4.4c-4.3,2.9-7.6,7.2-9.9,12.9s-3.5,12.3-3.5,19.9c0,7.5,1.1,14.1,3.4,19.7
			c2.3,5.6,5.6,9.9,9.8,12.9c4.3,3,9.3,4.5,15,4.5c8.7,0,15.7-3.3,20.8-9.9C478.8,854.7,481.4,845.6,481.4,834z"/>
		<path id="XMLID_168_" fill="#322D4C" d="M559.5,749.1v44c5.4-5.6,10.9-9.9,16.6-12.9c5.6-3,12.6-4.5,20.9-4.5
			c9.6,0,17.9,2.3,25.1,6.8c7.2,4.5,12.8,11.1,16.8,19.7c4,8.6,6,18.8,6,30.6c0,8.7-1.1,16.7-3.3,24c-2.2,7.3-5.4,13.6-9.6,18.9
			c-4.2,5.3-9.3,9.5-15.3,12.4c-6,2.9-12.6,4.4-19.9,4.4c-4.4,0-8.6-0.5-12.5-1.6c-3.9-1.1-7.2-2.4-10-4.2c-2.7-1.7-5.1-3.5-7-5.3
			c-1.9-1.8-4.5-4.6-7.6-8.2v2.8c0,5.4-1.3,9.5-3.9,12.3c-2.6,2.8-5.9,4.2-9.9,4.2c-4.1,0-7.3-1.4-9.8-4.2s-3.6-6.9-3.6-12.3V750.4
			c0-5.8,1.2-10.2,3.5-13.2c2.4-3,5.6-4.5,9.9-4.5c4.4,0,7.8,1.4,10.2,4.3C558.3,739.8,559.5,743.9,559.5,749.1z M560.9,834.6
			c0,11.5,2.6,20.3,7.9,26.4c5.2,6.2,12.1,9.2,20.6,9.2c7.2,0,13.5-3.1,18.7-9.4c5.2-6.3,7.9-15.3,7.9-27c0-7.6-1.1-14.1-3.3-19.6
			c-2.2-5.5-5.3-9.7-9.3-12.7c-4-3-8.7-4.5-14-4.5c-5.5,0-10.4,1.5-14.7,4.5c-4.3,3-7.7,7.3-10.1,13
			C562.1,820.1,560.9,826.8,560.9,834.6z"/>
		<path id="XMLID_171_" fill="#322D4C" d="M740.6,876.3c-7,5.4-13.7,9.5-20.2,12.2c-6.5,2.7-13.8,4.1-21.9,4.1
			c-7.4,0-13.9-1.5-19.5-4.4c-5.6-2.9-9.9-6.9-12.9-11.9c-3-5-4.5-10.4-4.5-16.2c0-7.9,2.5-14.6,7.5-20.1c5-5.6,11.8-9.3,20.6-11.2
			c1.8-0.4,6.4-1.4,13.6-2.8c7.2-1.5,13.4-2.8,18.6-4.1c5.2-1.2,10.8-2.7,16.8-4.5c-0.4-7.6-1.9-13.2-4.6-16.7
			c-2.7-3.5-8.3-5.3-16.8-5.3c-7.3,0-12.8,1-16.5,3.1c-3.7,2-6.9,5.1-9.5,9.2c-2.6,4.1-4.5,6.8-5.6,8.1c-1.1,1.3-3.4,2-7,2
			c-3.2,0-6-1-8.4-3.1c-2.4-2.1-3.5-4.7-3.5-8c0-5.1,1.8-10,5.4-14.8c3.6-4.8,9.2-8.7,16.8-11.8c7.6-3.1,17-4.6,28.4-4.6
			c12.7,0,22.6,1.5,29.8,4.5c7.2,3,12.4,7.7,15.3,14.2c3,6.5,4.5,15,4.5,25.7c0,6.7,0,12.5-0.1,17.2c0,4.7-0.1,9.9-0.2,15.7
			c0,5.4,0.9,11.1,2.7,16.9c1.8,5.9,2.7,9.6,2.7,11.3c0,3-1.4,5.6-4.2,8.1c-2.8,2.4-5.9,3.6-9.4,3.6c-3,0-5.9-1.4-8.8-4.2
			C746.9,885.6,743.8,881.5,740.6,876.3z M738.7,834.6c-4.2,1.5-10.3,3.2-18.4,4.9c-8,1.7-13.6,3-16.7,3.8c-3.1,0.8-6,2.4-8.9,4.7
			c-2.8,2.4-4.2,5.6-4.2,9.9c0,4.4,1.7,8.1,5,11.1c3.3,3.1,7.6,4.6,13,4.6c5.7,0,10.9-1.2,15.8-3.7c4.8-2.5,8.3-5.7,10.6-9.6
			c2.6-4.4,3.9-11.5,3.9-21.5V834.6z"/>
		<path id="XMLID_174_" fill="#322D4C" d="M824.7,851v24c0,5.8-1.4,10.2-4.1,13.1c-2.7,2.9-6.2,4.4-10.4,4.4
			c-4.1,0-7.6-1.5-10.2-4.4c-2.7-3-4-7.3-4-13.1v-80.1c0-12.9,4.7-19.4,14-19.4c4.8,0,8.2,1.5,10.3,4.5c2.1,3,3.3,7.5,3.5,13.4
			c3.4-5.9,7-10.4,10.6-13.4c3.6-3,8.4-4.5,14.5-4.5c6,0,11.9,1.5,17.6,4.5c5.7,3,8.5,7,8.5,12c0,3.5-1.2,6.4-3.6,8.7
			c-2.4,2.3-5,3.4-7.9,3.4c-1.1,0-3.6-0.6-7.6-2c-4-1.3-7.6-2-10.7-2c-4.2,0-7.7,1.1-10.3,3.3c-2.7,2.2-4.7,5.5-6.2,9.9
			c-1.5,4.4-2.5,9.5-3.1,15.5C825,835,824.7,842.3,824.7,851z"/>
	</g>
	<line id="XMLID_90_" display="inline" fill="#322D4C" x1="111" y1="903.6" x2="876.3" y2="903.6"/>
	<g id="XMLID_72_" display="inline">
		<path id="XMLID_73_" fill="#322D4C" d="M217.1,927.6v6.3h9.6v-6.3c0-0.9,0.2-1.6,0.6-2c0.4-0.4,0.9-0.7,1.6-0.7
			c0.7,0,1.2,0.2,1.6,0.7c0.4,0.4,0.6,1.1,0.6,2V945c0,0.9-0.2,1.6-0.6,2c-0.4,0.4-1,0.7-1.6,0.7c-0.7,0-1.2-0.2-1.6-0.7
			c-0.4-0.5-0.6-1.1-0.6-2v-7.4h-9.6v7.4c0,0.9-0.2,1.6-0.6,2c-0.4,0.4-1,0.7-1.6,0.7c-0.7,0-1.2-0.2-1.6-0.7
			c-0.4-0.5-0.6-1.1-0.6-2v-17.3c0-0.9,0.2-1.6,0.6-2c0.4-0.4,0.9-0.7,1.6-0.7c0.7,0,1.2,0.2,1.6,0.7
			C216.9,926.1,217.1,926.7,217.1,927.6z"/>
		<path id="XMLID_75_" fill="#322D4C" d="M250,944.8l-1-2.8H240l-1,2.8c-0.4,1.1-0.8,1.8-1,2.2c-0.3,0.4-0.8,0.6-1.4,0.6
			c-0.6,0-1.1-0.2-1.5-0.6c-0.4-0.4-0.6-0.9-0.6-1.4c0-0.3,0-0.6,0.1-0.9c0.1-0.3,0.3-0.8,0.5-1.3l5.6-14.3c0.2-0.4,0.4-0.9,0.6-1.5
			c0.2-0.6,0.5-1.1,0.7-1.4s0.6-0.7,1-0.9c0.4-0.2,0.9-0.4,1.5-0.4c0.6,0,1.1,0.1,1.6,0.4c0.4,0.2,0.7,0.5,1,0.9
			c0.3,0.4,0.5,0.8,0.6,1.2c0.2,0.4,0.4,1,0.7,1.7l5.7,14.2c0.4,1.1,0.7,1.9,0.7,2.4c0,0.5-0.2,1-0.6,1.4c-0.4,0.4-0.9,0.6-1.5,0.6
			c-0.3,0-0.6-0.1-0.9-0.2c-0.3-0.1-0.5-0.3-0.6-0.5s-0.4-0.5-0.5-1S250.1,945.1,250,944.8z M241.2,938.7h6.6l-3.3-9.1L241.2,938.7z
			"/>
		<path id="XMLID_78_" fill="#322D4C" d="M264,937.9h-1.6v7.1c0,0.9-0.2,1.6-0.6,2.1c-0.4,0.4-0.9,0.7-1.6,0.7
			c-0.7,0-1.3-0.2-1.6-0.7c-0.4-0.5-0.6-1.1-0.6-2v-16.9c0-1,0.2-1.7,0.6-2.1c0.4-0.4,1.1-0.6,2.1-0.6h7.2c1,0,1.9,0,2.6,0.1
			s1.3,0.3,1.9,0.5c0.7,0.3,1.3,0.7,1.8,1.2c0.5,0.5,0.9,1.2,1.2,1.9c0.3,0.7,0.4,1.5,0.4,2.3c0,1.6-0.5,2.9-1.4,3.9
			c-0.9,1-2.3,1.7-4.2,2.1c0.8,0.4,1.5,1,2.3,1.9s1.4,1.7,1.9,2.6c0.6,0.9,1,1.8,1.3,2.5c0.3,0.7,0.5,1.3,0.5,1.5
			c0,0.3-0.1,0.6-0.3,0.9c-0.2,0.3-0.4,0.5-0.8,0.7c-0.3,0.2-0.7,0.2-1.1,0.2c-0.5,0-0.9-0.1-1.3-0.4c-0.3-0.2-0.6-0.5-0.9-0.9
			c-0.2-0.4-0.6-0.9-1-1.6l-1.8-3c-0.6-1.1-1.2-1.9-1.7-2.5c-0.5-0.6-1-1-1.5-1.2S264.8,937.9,264,937.9z M266.6,928.7h-4.1v6h4
			c1.1,0,2-0.1,2.7-0.3c0.7-0.2,1.3-0.5,1.7-0.9s0.6-1.1,0.6-1.8c0-0.6-0.2-1.1-0.5-1.6c-0.3-0.5-0.7-0.8-1.3-1
			C269.1,928.8,268.1,928.7,266.6,928.7z"/>
		<path id="XMLID_81_" fill="#322D4C" d="M282.9,925.3h5.8c1.5,0,2.8,0.1,3.9,0.4s2.1,0.8,2.9,1.6c2.3,2,3.4,4.9,3.4,8.9
			c0,1.3-0.1,2.5-0.3,3.6c-0.2,1.1-0.6,2.1-1.1,2.9c-0.5,0.9-1.1,1.7-1.8,2.3c-0.6,0.5-1.2,1-1.9,1.3c-0.7,0.3-1.5,0.5-2.3,0.7
			c-0.8,0.1-1.7,0.2-2.7,0.2H283c-0.8,0-1.4-0.1-1.8-0.4c-0.4-0.2-0.7-0.6-0.8-1s-0.2-1-0.2-1.7v-16.1c0-1,0.2-1.7,0.6-2.1
			C281.2,925.5,281.9,925.3,282.9,925.3z M284.6,928.8v14.9h3.4c0.7,0,1.3,0,1.7-0.1c0.4,0,0.9-0.1,1.3-0.3c0.4-0.2,0.8-0.4,1.2-0.7
			c1.5-1.3,2.2-3.4,2.2-6.5c0-2.2-0.3-3.8-1-4.9s-1.5-1.8-2.4-2.1c-1-0.3-2.1-0.4-3.5-0.4H284.6z"/>
		<path id="XMLID_84_" fill="#322D4C" d="M319.1,943.8l-3.6-13.2l-3.6,13.2c-0.3,1-0.5,1.7-0.7,2.2c-0.2,0.4-0.5,0.8-0.9,1.2
			c-0.4,0.3-1,0.5-1.6,0.5c-0.5,0-1-0.1-1.4-0.3c-0.4-0.2-0.6-0.5-0.9-0.9c-0.2-0.4-0.4-0.8-0.5-1.3c-0.1-0.5-0.3-1-0.4-1.4
			l-3.7-14.8c-0.2-0.9-0.3-1.5-0.3-2c0-0.6,0.2-1,0.6-1.4c0.4-0.4,0.9-0.6,1.5-0.6c0.8,0,1.4,0.3,1.6,0.8s0.5,1.3,0.7,2.3l2.9,12.8
			l3.2-12c0.2-0.9,0.5-1.6,0.6-2.1c0.2-0.5,0.5-0.9,0.9-1.2s1-0.5,1.8-0.5c0.7,0,1.3,0.2,1.7,0.5c0.4,0.4,0.7,0.8,0.9,1.2
			c0.2,0.4,0.4,1.1,0.6,2.1l3.3,12L325,928c0.1-0.7,0.3-1.2,0.4-1.6s0.3-0.7,0.6-1s0.7-0.5,1.3-0.5c0.6,0,1.1,0.2,1.5,0.6
			c0.4,0.4,0.6,0.9,0.6,1.4c0,0.4-0.1,1.1-0.3,2l-3.7,14.8c-0.2,1-0.5,1.7-0.6,2.2c-0.2,0.5-0.4,0.9-0.8,1.2c-0.4,0.3-1,0.5-1.7,0.5
			c-0.7,0-1.2-0.2-1.6-0.5s-0.7-0.7-0.9-1.1C319.7,945.6,319.4,944.9,319.1,943.8z"/>
		<path id="XMLID_86_" fill="#322D4C" d="M346.4,944.8l-1-2.8h-8.9l-1,2.8c-0.4,1.1-0.8,1.8-1,2.2c-0.3,0.4-0.8,0.6-1.4,0.6
			c-0.6,0-1.1-0.2-1.5-0.6c-0.4-0.4-0.6-0.9-0.6-1.4c0-0.3,0-0.6,0.1-0.9c0.1-0.3,0.3-0.8,0.5-1.3l5.6-14.3c0.2-0.4,0.4-0.9,0.6-1.5
			c0.2-0.6,0.5-1.1,0.7-1.4s0.6-0.7,1-0.9c0.4-0.2,0.9-0.4,1.5-0.4c0.6,0,1.1,0.1,1.6,0.4c0.4,0.2,0.7,0.5,1,0.9
			c0.3,0.4,0.5,0.8,0.6,1.2c0.2,0.4,0.4,1,0.7,1.7l5.7,14.2c0.4,1.1,0.7,1.9,0.7,2.4c0,0.5-0.2,1-0.6,1.4c-0.4,0.4-0.9,0.6-1.5,0.6
			c-0.3,0-0.6-0.1-0.9-0.2c-0.3-0.1-0.5-0.3-0.6-0.5s-0.4-0.5-0.5-1S346.6,945.1,346.4,944.8z M337.6,938.7h6.6l-3.3-9.1
			L337.6,938.7z"/>
		<path id="XMLID_110_" fill="#322D4C" d="M360.4,937.9h-1.6v7.1c0,0.9-0.2,1.6-0.6,2.1c-0.4,0.4-0.9,0.7-1.6,0.7
			c-0.7,0-1.3-0.2-1.6-0.7c-0.4-0.5-0.6-1.1-0.6-2v-16.9c0-1,0.2-1.7,0.6-2.1c0.4-0.4,1.1-0.6,2.1-0.6h7.2c1,0,1.9,0,2.6,0.1
			s1.3,0.3,1.9,0.5c0.7,0.3,1.3,0.7,1.8,1.2c0.5,0.5,0.9,1.2,1.2,1.9c0.3,0.7,0.4,1.5,0.4,2.3c0,1.6-0.5,2.9-1.4,3.9
			c-0.9,1-2.3,1.7-4.2,2.1c0.8,0.4,1.5,1,2.3,1.9s1.4,1.7,1.9,2.6c0.6,0.9,1,1.8,1.3,2.5c0.3,0.7,0.5,1.3,0.5,1.5
			c0,0.3-0.1,0.6-0.3,0.9c-0.2,0.3-0.4,0.5-0.8,0.7c-0.3,0.2-0.7,0.2-1.1,0.2c-0.5,0-0.9-0.1-1.3-0.4c-0.3-0.2-0.6-0.5-0.9-0.9
			c-0.2-0.4-0.6-0.9-1-1.6l-1.8-3c-0.6-1.1-1.2-1.9-1.7-2.5c-0.5-0.6-1-1-1.5-1.2S361.2,937.9,360.4,937.9z M363,928.7h-4.1v6h4
			c1.1,0,2-0.1,2.7-0.3c0.7-0.2,1.3-0.5,1.7-0.9s0.6-1.1,0.6-1.8c0-0.6-0.2-1.1-0.5-1.6c-0.3-0.5-0.7-0.8-1.3-1
			C365.5,928.8,364.5,928.7,363,928.7z"/>
		<path id="XMLID_113_" fill="#322D4C" d="M391,928.8h-10v5.4h9.2c0.7,0,1.2,0.2,1.5,0.5c0.3,0.3,0.5,0.7,0.5,1.2
			c0,0.5-0.2,0.9-0.5,1.2c-0.3,0.3-0.8,0.5-1.5,0.5H381v6.3h10.4c0.7,0,1.2,0.2,1.6,0.5c0.4,0.3,0.5,0.8,0.5,1.3
			c0,0.5-0.2,0.9-0.5,1.3c-0.4,0.3-0.9,0.5-1.6,0.5h-12.1c-1,0-1.7-0.2-2.1-0.6c-0.4-0.4-0.6-1.1-0.6-2.1v-16.5
			c0-0.6,0.1-1.2,0.3-1.6c0.2-0.4,0.5-0.7,0.9-0.9c0.4-0.2,0.9-0.3,1.6-0.3H391c0.7,0,1.2,0.2,1.6,0.5c0.3,0.3,0.5,0.7,0.5,1.2
			c0,0.5-0.2,0.9-0.5,1.3C392.3,928.6,391.7,928.8,391,928.8z"/>
		<path id="XMLID_115_" fill="#322D4C" d="M407,930c0-0.9,0.2-1.8,0.7-2.5s1.2-1.4,2.1-1.8c0.9-0.4,2-0.7,3.3-0.7
			c1.3,0,2.3,0.2,3.3,0.7c0.9,0.5,1.6,1.1,2.1,1.8c0.5,0.8,0.7,1.5,0.7,2.4c0,1.1-0.4,2.1-1.1,2.9c-0.7,0.8-1.8,1.7-3.3,2.5
			c0.5,0.6,1,1.1,1.4,1.7c0.4,0.5,0.8,1,1.2,1.5c0.4,0.5,0.8,0.8,1.1,1.2c0.1-0.3,0.4-0.8,0.7-1.6c0.3-0.8,0.6-1.3,0.9-1.7
			s0.7-0.5,1.2-0.5c0.5,0,0.9,0.2,1.2,0.5c0.4,0.3,0.5,0.7,0.5,1.2c0,0.4-0.2,1.1-0.5,1.9c-0.3,0.8-0.8,1.7-1.3,2.7
			c0.4,0.3,1,0.8,1.8,1.5c0.8,0.7,1.3,1.1,1.5,1.3c0.2,0.2,0.3,0.5,0.3,0.9c0,0.5-0.2,1-0.6,1.3c-0.4,0.4-0.8,0.5-1.3,0.5
			c-0.5,0-0.9-0.2-1.4-0.5c-0.4-0.3-1.4-1-2.8-2.2c-0.6,0.6-1.3,1.1-2,1.5s-1.4,0.7-2.2,0.9s-1.7,0.3-2.7,0.3
			c-1.2,0-2.4-0.2-3.4-0.5c-1-0.4-1.8-0.9-2.5-1.5c-0.7-0.6-1.1-1.3-1.5-2.1c-0.3-0.8-0.5-1.5-0.5-2.3c0-0.8,0.1-1.4,0.4-2.1
			c0.2-0.6,0.6-1.2,1-1.7s1-1,1.6-1.4c0.6-0.5,1.4-0.9,2.2-1.3c-0.7-0.9-1.3-1.8-1.7-2.5C407.2,931.5,407,930.8,407,930z
			 M411.3,937.2c-1,0.6-1.8,1.2-2.3,1.8s-0.8,1.3-0.8,2.1c0,0.5,0.1,0.9,0.3,1.3c0.2,0.4,0.5,0.8,0.8,1.2c0.4,0.4,0.8,0.6,1.2,0.8
			c0.5,0.2,1,0.3,1.5,0.3c0.5,0,1-0.1,1.5-0.2c0.5-0.2,0.9-0.4,1.4-0.7c0.4-0.3,0.9-0.7,1.3-1.1c-0.9-0.8-1.7-1.6-2.4-2.4
			C413.1,939.4,412.3,938.4,411.3,937.2z M412.8,933.1c1-0.6,1.8-1.2,2.2-1.6c0.5-0.4,0.7-1,0.7-1.6c0-0.6-0.2-1.1-0.7-1.6
			c-0.5-0.4-1-0.6-1.7-0.6s-1.3,0.2-1.7,0.6c-0.5,0.4-0.7,0.9-0.7,1.5c0,0.3,0.1,0.6,0.3,1c0.2,0.3,0.4,0.7,0.7,1
			S412.4,932.5,412.8,933.1z"/>
		<path id="XMLID_119_" fill="#322D4C" d="M454.4,940.4c0,0.7-0.2,1.5-0.5,2.3s-0.9,1.6-1.6,2.4c-0.7,0.8-1.7,1.4-2.8,1.9
			c-1.1,0.5-2.5,0.7-4,0.7c-1.2,0-2.2-0.1-3.2-0.3s-1.8-0.6-2.6-1s-1.5-1.1-2.1-1.8c-0.6-0.7-1.1-1.5-1.5-2.3
			c-0.4-0.9-0.7-1.8-0.9-2.7c-0.2-1-0.3-2-0.3-3.1c0-1.8,0.3-3.4,0.8-4.8c0.5-1.4,1.3-2.6,2.2-3.6c1-1,2.1-1.8,3.4-2.3
			s2.7-0.8,4.1-0.8c1.8,0,3.4,0.4,4.8,1.1c1.4,0.7,2.5,1.6,3.2,2.6c0.7,1,1.1,2,1.1,3c0,0.5-0.2,1-0.5,1.3c-0.4,0.4-0.8,0.6-1.3,0.6
			c-0.6,0-1-0.1-1.3-0.4c-0.3-0.3-0.6-0.7-1-1.4c-0.6-1.1-1.3-1.9-2-2.4c-0.8-0.5-1.8-0.8-2.9-0.8c-1.8,0-3.3,0.7-4.4,2.1
			c-1.1,1.4-1.6,3.4-1.6,5.9c0,1.7,0.2,3.1,0.7,4.3c0.5,1.1,1.2,2,2,2.5s1.9,0.8,3.1,0.8c1.3,0,2.4-0.3,3.2-1s1.6-1.6,2-2.8
			c0.2-0.6,0.4-1.1,0.7-1.4c0.3-0.4,0.7-0.5,1.3-0.5c0.5,0,1,0.2,1.4,0.6C454.2,939.3,454.4,939.8,454.4,940.4z"/>
		<path id="XMLID_121_" fill="#322D4C" d="M468.1,924.9c2.3,0,4.2,0.5,5.9,1.4c1.6,0.9,2.9,2.2,3.7,3.9c0.8,1.7,1.3,3.7,1.3,6
			c0,1.7-0.2,3.2-0.7,4.6c-0.5,1.4-1.1,2.6-2.1,3.6c-0.9,1-2,1.8-3.4,2.3c-1.3,0.5-2.9,0.8-4.6,0.8c-1.7,0-3.3-0.3-4.6-0.8
			s-2.5-1.3-3.4-2.3c-0.9-1-1.6-2.2-2.1-3.6c-0.5-1.4-0.7-3-0.7-4.6c0-1.7,0.2-3.2,0.7-4.6c0.5-1.4,1.2-2.6,2.1-3.6s2-1.7,3.4-2.3
			S466.4,924.9,468.1,924.9z M474.4,936.3c0-1.6-0.3-3-0.8-4.2c-0.5-1.2-1.3-2.1-2.2-2.7s-2.1-0.9-3.3-0.9c-0.9,0-1.7,0.2-2.5,0.5
			s-1.4,0.8-1.9,1.5c-0.5,0.6-1,1.5-1.3,2.5c-0.3,1-0.5,2.1-0.5,3.4c0,1.2,0.2,2.4,0.5,3.4c0.3,1,0.8,1.8,1.3,2.5
			c0.6,0.7,1.2,1.2,2,1.5c0.7,0.3,1.6,0.5,2.5,0.5c1.1,0,2.2-0.3,3.1-0.9s1.7-1.4,2.3-2.6C474.1,939.5,474.4,938,474.4,936.3z"/>
		<path id="XMLID_124_" fill="#322D4C" d="M488.5,927.6l8.6,13v-13.1c0-0.8,0.2-1.5,0.5-1.9c0.4-0.4,0.9-0.6,1.5-0.6
			c0.6,0,1.1,0.2,1.5,0.6c0.4,0.4,0.6,1.1,0.6,1.9v17.3c0,1.9-0.8,2.9-2.4,2.9c-0.4,0-0.8-0.1-1.1-0.2c-0.3-0.1-0.6-0.3-0.9-0.5
			c-0.3-0.3-0.5-0.5-0.8-0.9c-0.2-0.3-0.5-0.7-0.7-1l-8.3-12.8v12.9c0,0.8-0.2,1.5-0.6,1.9s-0.9,0.6-1.5,0.6c-0.6,0-1.1-0.2-1.5-0.7
			c-0.4-0.4-0.6-1.1-0.6-1.9v-17c0-0.7,0.1-1.3,0.2-1.7c0.2-0.4,0.5-0.8,0.9-1.1c0.4-0.3,0.9-0.4,1.4-0.4c0.4,0,0.7,0.1,1,0.2
			s0.5,0.3,0.7,0.5c0.2,0.2,0.4,0.5,0.7,0.9C488,926.9,488.3,927.2,488.5,927.6z"/>
		<path id="XMLID_126_" fill="#322D4C" d="M522.7,940.7c0,1.3-0.3,2.5-1,3.6c-0.7,1.1-1.7,1.9-3,2.5c-1.3,0.6-2.9,0.9-4.7,0.9
			c-2.2,0-4-0.4-5.4-1.2c-1-0.6-1.8-1.4-2.4-2.4s-0.9-1.9-0.9-2.9c0-0.5,0.2-1,0.6-1.4c0.4-0.4,0.9-0.6,1.4-0.6
			c0.5,0,0.9,0.2,1.2,0.5c0.3,0.3,0.6,0.7,0.8,1.3c0.3,0.7,0.6,1.3,0.9,1.8c0.3,0.5,0.8,0.9,1.4,1.2c0.6,0.3,1.4,0.5,2.3,0.5
			c1.3,0,2.4-0.3,3.2-0.9s1.2-1.4,1.2-2.3c0-0.7-0.2-1.3-0.7-1.8c-0.4-0.5-1-0.8-1.7-1c-0.7-0.2-1.6-0.5-2.8-0.8
			c-1.6-0.4-2.9-0.8-4-1.3c-1.1-0.5-1.9-1.2-2.5-2c-0.6-0.9-0.9-1.9-0.9-3.2c0-1.2,0.3-2.3,1-3.2c0.7-0.9,1.6-1.7,2.9-2.2
			c1.2-0.5,2.7-0.8,4.4-0.8c1.3,0,2.5,0.2,3.5,0.5s1.8,0.8,2.5,1.3c0.6,0.6,1.1,1.1,1.4,1.7s0.5,1.2,0.5,1.8c0,0.5-0.2,1-0.6,1.4
			c-0.4,0.4-0.8,0.6-1.4,0.6c-0.5,0-0.9-0.1-1.2-0.4s-0.6-0.7-0.9-1.3c-0.4-0.8-0.9-1.5-1.4-1.9c-0.6-0.5-1.5-0.7-2.7-0.7
			c-1.1,0-2.1,0.3-2.8,0.8c-0.7,0.5-1.1,1.1-1.1,1.8c0,0.4,0.1,0.8,0.4,1.1c0.2,0.3,0.6,0.6,1,0.8c0.4,0.2,0.8,0.4,1.3,0.5
			s1.1,0.3,2.1,0.6c1.2,0.3,2.4,0.6,3.4,1s1.9,0.8,2.6,1.3c0.7,0.5,1.3,1.1,1.6,1.9C522.5,938.7,522.7,939.6,522.7,940.7z"/>
		<path id="XMLID_128_" fill="#322D4C" d="M540.8,929h-4.9v16c0,0.9-0.2,1.6-0.6,2c-0.4,0.4-0.9,0.7-1.6,0.7c-0.7,0-1.2-0.2-1.6-0.7
			c-0.4-0.4-0.6-1.1-0.6-2v-16h-4.9c-0.8,0-1.3-0.2-1.7-0.5c-0.4-0.3-0.6-0.8-0.6-1.3c0-0.6,0.2-1,0.6-1.3c0.4-0.3,0.9-0.5,1.7-0.5
			h14.1c0.8,0,1.3,0.2,1.7,0.5s0.6,0.8,0.6,1.3s-0.2,1-0.6,1.3C542.1,928.8,541.5,929,540.8,929z"/>
		<path id="XMLID_130_" fill="#322D4C" d="M551.7,937.9h-1.6v7.1c0,0.9-0.2,1.6-0.6,2.1c-0.4,0.4-0.9,0.7-1.6,0.7
			c-0.7,0-1.3-0.2-1.6-0.7c-0.4-0.5-0.6-1.1-0.6-2v-16.9c0-1,0.2-1.7,0.6-2.1s1.1-0.6,2.1-0.6h7.2c1,0,1.9,0,2.6,0.1
			c0.7,0.1,1.3,0.3,1.9,0.5c0.7,0.3,1.3,0.7,1.8,1.2c0.5,0.5,0.9,1.2,1.2,1.9c0.3,0.7,0.4,1.5,0.4,2.3c0,1.6-0.5,2.9-1.4,3.9
			c-0.9,1-2.3,1.7-4.2,2.1c0.8,0.4,1.5,1,2.3,1.9s1.4,1.7,1.9,2.6c0.6,0.9,1,1.8,1.3,2.5c0.3,0.7,0.5,1.3,0.5,1.5
			c0,0.3-0.1,0.6-0.3,0.9c-0.2,0.3-0.4,0.5-0.8,0.7c-0.3,0.2-0.7,0.2-1.1,0.2c-0.5,0-0.9-0.1-1.3-0.4s-0.6-0.5-0.9-0.9
			c-0.2-0.4-0.6-0.9-1-1.6l-1.8-3c-0.6-1.1-1.2-1.9-1.7-2.5c-0.5-0.6-1-1-1.5-1.2S552.5,937.9,551.7,937.9z M554.2,928.7h-4.1v6h4
			c1.1,0,2-0.1,2.7-0.3s1.3-0.5,1.7-0.9c0.4-0.4,0.6-1.1,0.6-1.8c0-0.6-0.2-1.1-0.5-1.6c-0.3-0.5-0.7-0.8-1.3-1
			C556.8,928.8,555.7,928.7,554.2,928.7z"/>
		<path id="XMLID_133_" fill="#322D4C" d="M567,938.2v-10.6c0-0.9,0.2-1.6,0.6-2c0.4-0.4,0.9-0.7,1.6-0.7c0.7,0,1.2,0.2,1.6,0.7
			c0.4,0.5,0.6,1.1,0.6,2v10.8c0,1.2,0.1,2.3,0.4,3.1c0.3,0.8,0.8,1.5,1.5,1.9c0.7,0.5,1.7,0.7,2.9,0.7c1.7,0,3-0.5,3.7-1.4
			s1.1-2.3,1.1-4.2v-10.9c0-0.9,0.2-1.6,0.6-2c0.4-0.4,0.9-0.7,1.6-0.7c0.7,0,1.2,0.2,1.6,0.7c0.4,0.4,0.6,1.1,0.6,2v10.6
			c0,1.7-0.2,3.2-0.5,4.3c-0.3,1.1-1,2.2-1.9,3c-0.8,0.7-1.7,1.3-2.8,1.6c-1.1,0.3-2.3,0.5-3.7,0.5c-1.7,0-3.1-0.2-4.4-0.5
			c-1.2-0.4-2.2-0.9-3-1.7s-1.3-1.7-1.7-2.9S567,939.9,567,938.2z"/>
		<path id="XMLID_135_" fill="#322D4C" d="M609,940.4c0,0.7-0.2,1.5-0.5,2.3s-0.9,1.6-1.6,2.4s-1.7,1.4-2.8,1.9
			c-1.1,0.5-2.5,0.7-4,0.7c-1.2,0-2.2-0.1-3.2-0.3s-1.8-0.6-2.6-1s-1.5-1.1-2.1-1.8c-0.6-0.7-1.1-1.5-1.5-2.3
			c-0.4-0.9-0.7-1.8-0.9-2.7c-0.2-1-0.3-2-0.3-3.1c0-1.8,0.3-3.4,0.8-4.8c0.5-1.4,1.3-2.6,2.2-3.6c1-1,2.1-1.8,3.4-2.3
			s2.7-0.8,4.1-0.8c1.8,0,3.4,0.4,4.8,1.1c1.4,0.7,2.5,1.6,3.2,2.6s1.1,2,1.1,3c0,0.5-0.2,1-0.5,1.3s-0.8,0.6-1.3,0.6
			c-0.6,0-1-0.1-1.3-0.4c-0.3-0.3-0.6-0.7-1-1.4c-0.6-1.1-1.3-1.9-2-2.4c-0.8-0.5-1.8-0.8-2.9-0.8c-1.8,0-3.3,0.7-4.4,2.1
			s-1.6,3.4-1.6,5.9c0,1.7,0.2,3.1,0.7,4.3s1.2,2,2,2.5s1.9,0.8,3.1,0.8c1.3,0,2.4-0.3,3.2-1c0.9-0.6,1.6-1.6,2-2.8
			c0.2-0.6,0.4-1.1,0.7-1.4c0.3-0.4,0.7-0.5,1.3-0.5c0.5,0,1,0.2,1.4,0.6C608.9,939.3,609,939.8,609,940.4z"/>
		<path id="XMLID_137_" fill="#322D4C" d="M627.3,929h-4.9v16c0,0.9-0.2,1.6-0.6,2c-0.4,0.4-0.9,0.7-1.6,0.7c-0.7,0-1.2-0.2-1.6-0.7
			c-0.4-0.4-0.6-1.1-0.6-2v-16h-4.9c-0.8,0-1.3-0.2-1.7-0.5c-0.4-0.3-0.6-0.8-0.6-1.3c0-0.6,0.2-1,0.6-1.3c0.4-0.3,0.9-0.5,1.7-0.5
			h14.1c0.8,0,1.3,0.2,1.7,0.5s0.6,0.8,0.6,1.3s-0.2,1-0.6,1.3C628.6,928.8,628.1,929,627.3,929z"/>
		<path id="XMLID_139_" fill="#322D4C" d="M632.4,945v-17.3c0-0.9,0.2-1.6,0.6-2c0.4-0.4,0.9-0.7,1.6-0.7c0.7,0,1.2,0.2,1.6,0.7
			c0.4,0.4,0.6,1.1,0.6,2V945c0,0.9-0.2,1.6-0.6,2s-1,0.7-1.6,0.7c-0.6,0-1.2-0.2-1.6-0.7C632.6,946.5,632.4,945.9,632.4,945z"/>
		<path id="XMLID_141_" fill="#322D4C" d="M651.5,924.9c2.3,0,4.2,0.5,5.9,1.4c1.6,0.9,2.9,2.2,3.7,3.9c0.8,1.7,1.3,3.7,1.3,6
			c0,1.7-0.2,3.2-0.7,4.6c-0.5,1.4-1.1,2.6-2.1,3.6c-0.9,1-2,1.8-3.4,2.3c-1.3,0.5-2.9,0.8-4.6,0.8c-1.7,0-3.3-0.3-4.6-0.8
			c-1.4-0.6-2.5-1.3-3.4-2.3c-0.9-1-1.6-2.2-2.1-3.6c-0.5-1.4-0.7-3-0.7-4.6c0-1.7,0.2-3.2,0.7-4.6c0.5-1.4,1.2-2.6,2.1-3.6
			c0.9-1,2-1.7,3.4-2.3C648.3,925.2,649.8,924.9,651.5,924.9z M657.8,936.3c0-1.6-0.3-3-0.8-4.2c-0.5-1.2-1.3-2.1-2.2-2.7
			c-1-0.6-2.1-0.9-3.3-0.9c-0.9,0-1.7,0.2-2.5,0.5c-0.8,0.3-1.4,0.8-1.9,1.5s-1,1.5-1.3,2.5c-0.3,1-0.5,2.1-0.5,3.4
			c0,1.2,0.2,2.4,0.5,3.4c0.3,1,0.8,1.8,1.3,2.5c0.6,0.7,1.2,1.2,2,1.5s1.6,0.5,2.5,0.5c1.1,0,2.2-0.3,3.1-0.9
			c1-0.6,1.7-1.4,2.3-2.6C657.6,939.5,657.8,938,657.8,936.3z"/>
		<path id="XMLID_144_" fill="#322D4C" d="M672,927.6l8.6,13v-13.1c0-0.8,0.2-1.5,0.5-1.9c0.4-0.4,0.9-0.6,1.5-0.6
			c0.6,0,1.1,0.2,1.5,0.6c0.4,0.4,0.6,1.1,0.6,1.9v17.3c0,1.9-0.8,2.9-2.4,2.9c-0.4,0-0.8-0.1-1.1-0.2c-0.3-0.1-0.6-0.3-0.9-0.5
			c-0.3-0.3-0.5-0.5-0.8-0.9c-0.2-0.3-0.5-0.7-0.7-1l-8.3-12.8v12.9c0,0.8-0.2,1.5-0.6,1.9s-0.9,0.6-1.5,0.6c-0.6,0-1.1-0.2-1.5-0.7
			s-0.6-1.1-0.6-1.9v-17c0-0.7,0.1-1.3,0.2-1.7c0.2-0.4,0.5-0.8,0.9-1.1c0.4-0.3,0.9-0.4,1.4-0.4c0.4,0,0.7,0.1,1,0.2
			c0.3,0.1,0.5,0.3,0.7,0.5s0.4,0.5,0.7,0.9C671.5,926.9,671.7,927.2,672,927.6z"/>
		<path id="XMLID_146_" fill="#322D4C" d="M713.8,940.7c0,1.3-0.3,2.5-1,3.6c-0.7,1.1-1.7,1.9-3,2.5c-1.3,0.6-2.9,0.9-4.7,0.9
			c-2.2,0-4-0.4-5.4-1.2c-1-0.6-1.8-1.4-2.4-2.4s-0.9-1.9-0.9-2.9c0-0.5,0.2-1,0.6-1.4c0.4-0.4,0.9-0.6,1.4-0.6
			c0.5,0,0.9,0.2,1.2,0.5c0.3,0.3,0.6,0.7,0.8,1.3c0.3,0.7,0.6,1.3,0.9,1.8c0.3,0.5,0.8,0.9,1.4,1.2s1.4,0.5,2.3,0.5
			c1.3,0,2.4-0.3,3.2-0.9s1.2-1.4,1.2-2.3c0-0.7-0.2-1.3-0.7-1.8c-0.4-0.5-1-0.8-1.7-1c-0.7-0.2-1.6-0.5-2.8-0.8
			c-1.6-0.4-2.9-0.8-4-1.3c-1.1-0.5-1.9-1.2-2.5-2c-0.6-0.9-0.9-1.9-0.9-3.2c0-1.2,0.3-2.3,1-3.2c0.7-0.9,1.6-1.7,2.9-2.2
			c1.2-0.5,2.7-0.8,4.4-0.8c1.3,0,2.5,0.2,3.5,0.5s1.8,0.8,2.5,1.3c0.6,0.6,1.1,1.1,1.4,1.7s0.5,1.2,0.5,1.8c0,0.5-0.2,1-0.6,1.4
			c-0.4,0.4-0.8,0.6-1.4,0.6c-0.5,0-0.9-0.1-1.2-0.4s-0.6-0.7-0.9-1.3c-0.4-0.8-0.9-1.5-1.4-1.9c-0.6-0.5-1.5-0.7-2.7-0.7
			c-1.1,0-2.1,0.3-2.8,0.8c-0.7,0.5-1.1,1.1-1.1,1.8c0,0.4,0.1,0.8,0.4,1.1c0.2,0.3,0.6,0.6,1,0.8c0.4,0.2,0.8,0.4,1.3,0.5
			s1.1,0.3,2.1,0.6c1.2,0.3,2.4,0.6,3.4,1s1.9,0.8,2.6,1.3c0.7,0.5,1.3,1.1,1.6,1.9C713.6,938.7,713.8,939.6,713.8,940.7z"/>
		<path id="XMLID_148_" fill="#322D4C" d="M717.7,938.2v-10.6c0-0.9,0.2-1.6,0.6-2c0.4-0.4,0.9-0.7,1.6-0.7c0.7,0,1.2,0.2,1.6,0.7
			c0.4,0.5,0.6,1.1,0.6,2v10.8c0,1.2,0.1,2.3,0.4,3.1c0.3,0.8,0.8,1.5,1.5,1.9c0.7,0.5,1.7,0.7,2.9,0.7c1.7,0,3-0.5,3.7-1.4
			s1.1-2.3,1.1-4.2v-10.9c0-0.9,0.2-1.6,0.6-2c0.4-0.4,0.9-0.7,1.6-0.7c0.7,0,1.2,0.2,1.6,0.7c0.4,0.4,0.6,1.1,0.6,2v10.6
			c0,1.7-0.2,3.2-0.5,4.3c-0.3,1.1-1,2.2-1.9,3c-0.8,0.7-1.7,1.3-2.8,1.6c-1.1,0.3-2.3,0.5-3.7,0.5c-1.7,0-3.1-0.2-4.4-0.5
			c-1.2-0.4-2.2-0.9-3-1.7s-1.3-1.7-1.7-2.9S717.7,939.9,717.7,938.2z"/>
		<path id="XMLID_150_" fill="#322D4C" d="M749.5,938.7h-4.1v6.2c0,0.9-0.2,1.6-0.6,2c-0.4,0.5-0.9,0.7-1.6,0.7
			c-0.7,0-1.2-0.2-1.6-0.7c-0.4-0.5-0.6-1.1-0.6-2v-16.9c0-1,0.2-1.7,0.7-2.1c0.5-0.4,1.2-0.6,2.1-0.6h5.7c1.7,0,3,0.1,3.9,0.4
			c0.9,0.3,1.7,0.7,2.3,1.2c0.7,0.6,1.2,1.3,1.5,2.1c0.3,0.8,0.5,1.8,0.5,2.8c0,2.2-0.7,3.9-2.1,5.1S752.2,938.7,749.5,938.7z
			 M748.4,928.7h-3v6.7h3c1,0,1.9-0.1,2.6-0.3s1.2-0.6,1.6-1.1c0.4-0.5,0.6-1.2,0.6-2c0-1-0.3-1.8-0.9-2.4
			C751.7,929,750.4,928.7,748.4,928.7z"/>
		<path id="XMLID_153_" fill="#322D4C" d="M769.9,938.7h-4.1v6.2c0,0.9-0.2,1.6-0.6,2c-0.4,0.5-0.9,0.7-1.6,0.7
			c-0.7,0-1.2-0.2-1.6-0.7c-0.4-0.5-0.6-1.1-0.6-2v-16.9c0-1,0.2-1.7,0.7-2.1c0.5-0.4,1.2-0.6,2.1-0.6h5.7c1.7,0,3,0.1,3.9,0.4
			c0.9,0.3,1.7,0.7,2.3,1.2c0.7,0.6,1.2,1.3,1.5,2.1c0.3,0.8,0.5,1.8,0.5,2.8c0,2.2-0.7,3.9-2.1,5.1S772.7,938.7,769.9,938.7z
			 M768.9,928.7h-3v6.7h3c1,0,1.9-0.1,2.6-0.3s1.2-0.6,1.6-1.1c0.4-0.5,0.6-1.2,0.6-2c0-1-0.3-1.8-0.9-2.4
			C772.2,929,770.9,928.7,768.9,928.7z"/>
		<path id="XMLID_156_" fill="#322D4C" d="M786.3,927.6v16h9c0.7,0,1.3,0.2,1.7,0.5c0.4,0.4,0.6,0.8,0.6,1.3c0,0.5-0.2,1-0.6,1.3
			s-0.9,0.5-1.7,0.5h-10.7c-1,0-1.7-0.2-2.1-0.6s-0.6-1.1-0.6-2.1v-16.9c0-0.9,0.2-1.6,0.6-2c0.4-0.4,0.9-0.7,1.6-0.7
			c0.7,0,1.2,0.2,1.6,0.7C786,926.1,786.3,926.7,786.3,927.6z"/>
		<path id="XMLID_158_" fill="#322D4C" d="M801.5,945v-7l-5.4-8.3c-0.5-0.7-0.8-1.3-1-1.8c-0.2-0.4-0.3-0.8-0.3-1.1
			c0-0.5,0.2-0.9,0.6-1.3c0.4-0.4,0.9-0.6,1.5-0.6c0.6,0,1.1,0.2,1.4,0.5c0.3,0.3,0.8,1,1.4,2.1l4.1,6.7l4.2-6.7
			c0.3-0.4,0.5-0.8,0.6-1c0.2-0.3,0.4-0.5,0.6-0.8c0.2-0.2,0.4-0.4,0.7-0.6c0.2-0.1,0.6-0.2,0.9-0.2c0.6,0,1,0.2,1.4,0.5
			c0.4,0.4,0.6,0.8,0.6,1.3c0,0.4-0.1,0.8-0.3,1.2c-0.2,0.4-0.5,0.9-1,1.6l-5.5,8.4v7c0,0.9-0.2,1.6-0.6,2s-1,0.7-1.6,0.7
			c-0.7,0-1.2-0.2-1.6-0.7C801.7,946.6,801.5,945.9,801.5,945z"/>
	</g>
	<path id="XMLID_109_" display="inline" fill="#322D4C" d="M488.9,51.1C270.3,51,168.2,229.6,168.2,382.3
		c0,196.6,171,327.4,273.9,327.4c3.7,0,25.8-1.2,35.7-6.9c13.5-7.8,14.9-20.6,14.9-20.6c-189.4-4.9-290-168.4-290-299.9
		c0-182.7,137.6-296.7,286.2-296.7c117.4,0,224.5,63,275.4,164.8c19.3,38.8,8.8,13.6,14,33.1c0,0,8.6-11.2,11.2-18.2
		c6-16,20.2-34.6-25.7-95.1C710.5,99.9,621.9,51.2,488.9,51.1z"/>
	<g id="XMLID_106_" display="inline">
		<path id="XMLID_107_" fill="#322D4C" d="M503.5,264.6V435l193.3-201.6c9.3-9.7,25.5-27.5,21.6-44c-3.1-13.1-21.8-26.7-21.8-26.7
			s75.4,46.3,84.2,54.6c8.7,8.3,15.5,12.1,15.5,24c0,14.4-9.9,35-24.7,49.1L652,403.8l137.9,197.6c9.7,13.7,17,25.7,21.9,36
			c4.9,10.3,7.3,20.3,7.3,30c0,10.8-4.3,20.2-12.8,28.2c-8.5,8-20.1,11.9-34.6,11.9c-13.7,0-24.9-2.9-33.5-8.8
			c-8.6-5.9-15.9-13.6-21.9-23.4c-6-9.7-11.3-18.6-15.9-26.5L584,469.8L503.5,547v100.5c0,20.3-4.6,35.4-13.9,45.3
			c-9.3,9.8-15.3,14.2-29.9,14.2c-8.4,0-22.1-2.1-30.1-6c-90.7-44.2-89.4-64.2-89.4-64.2s32.5,21,50.8,18.8
			c12-1.5,14.1-14,14.1-29.5V264.6c0-19.9,4.4-34.8,13.1-44.8c8.7-9.9,20.6-14.9,35.6-14.9c14.8,0,26.8,4.9,36,14.8
			C498.9,229.5,503.5,244.4,503.5,264.6z"/>
	</g>
	<path id="XMLID_105_" display="inline" fill="#322D4C" d="M682.2,208l1.2-3.3c3-7.8-1.6-16.4-10.2-19.1l-76.9-24.3
		c-8.6-2.7-18,1.5-21,9.3l-1.2,3.3c-3,7.8,1.6,16.4,10.2,19.1l76.9,24.3C669.8,220,679.3,215.9,682.2,208z"/>
	<polygon id="XMLID_104_" display="inline" fill="#322D4C" points="571,182.9 578.1,164 522.7,146.5 515.5,165.4 	"/>
	<path id="XMLID_103_" display="inline" fill="#322D4C" d="M486.9,191.6l1.6-4.3c1.1-2.9-0.6-6.2-3.8-7.2l-11.8-3.7
		c-3.2-1-6.8,0.6-7.9,3.5l-1.6,4.3c-1.1,2.9,0.6,6.2,3.8,7.2l11.8,3.7C482.3,196.1,485.8,194.5,486.9,191.6z"/>
	<path id="XMLID_102_" display="inline" fill="#322D4C" d="M521,142.3l-10.5,27.5l-15.7-5l-5.1,13.5l-18.9-6l0.5-14.9l10.5-27.5
		c0,0,13.7-29.9,38.7-30.7c25.1-0.8,1.7,0.6-3.9,7.8c-5.7,7.2-18.9,25.6-12,29.8L521,142.3z"/>
	<line id="XMLID_101_" display="inline" fill="#322D4C" x1="529" y1="159.1" x2="568.8" y2="171.6"/>
	<line id="XMLID_100_" display="inline" fill="#322D4C" x1="680.5" y1="196.3" x2="673.3" y2="215.1"/>
	<polyline id="XMLID_99_" display="inline" fill="#322D4C" points="504.1,140.6 515.4,144.2 509.8,158.9 	"/>
	<path id="XMLID_98_" display="inline" fill="#322D4C" d="M321,548.9h-9.4c-4.8,0-8.8-3.9-8.8-8.8v-81.9h26.9v81.9
		C329.8,545,325.9,548.9,321,548.9z"/>
	<path id="XMLID_97_" display="inline" fill="#322D4C" d="M330.5,458.2h-28.3c-2.1,0-3.8-1.7-3.8-3.8v-4.1c0-2.1,1.7-3.8,3.8-3.8
		h28.3c2.1,0,3.8,1.7,3.8,3.8v4.1C334.3,456.5,332.6,458.2,330.5,458.2z"/>
	<path id="XMLID_96_" display="inline" fill="#322D4C" d="M325.1,446.5h-17.5v-30.2c0-3.2,2.6-5.7,5.7-5.7h6.1
		c3.2,0,5.7,2.6,5.7,5.7V446.5z"/>
	<path id="XMLID_95_" display="inline" fill="#322D4C" d="M307.6,428.6l-37.7-10.7c-4.5-1.3-7-6.1-5.4-10.5l47.9-136.2
		c1.3-3.8,6.8-3.8,8.1,0l0,0l0.7,1.9l47.2,134.3c1.5,4.4-0.9,9.2-5.4,10.5l-37.7,10.7"/>
	<path id="XMLID_94_" display="inline" fill="#322D4C" d="M293.2,416.3l-15.9-4.4c-2.8-0.8-4.4-3.8-3.5-6.6l35.9-104"/>
	<path id="XMLID_93_" display="inline" fill="#322D4C" d="M309.1,468.9v69c0,3,2.5,5.5,5.5,5.5h3.3"/>
</g>
<g id="LogoOnlyDark">
	<path id="XMLID_190_" fill="#322D4C" d="M488.5,179c-218.6-0.1-320.7,178.5-320.7,331.2c0,196.6,171,327.4,273.9,327.4
		c3.7,0,25.8-1.2,35.7-6.9c13.5-7.8,14.9-20.6,14.9-20.6c-189.4-4.9-290-168.4-290-299.9c0-182.7,137.6-296.7,286.2-296.7
		c117.4,0,224.5,63,275.4,164.8c19.3,38.8,8.8,13.6,14,33.1c0,0,8.6-11.2,11.2-18.2c6-16,20.2-34.6-25.7-95.1
		C710.1,227.9,621.6,179.1,488.5,179z"/>
	<g id="XMLID_187_">
		<path id="XMLID_188_" fill="#322D4C" d="M503.1,392.5v170.4l193.3-201.6c9.3-9.7,25.5-27.5,21.6-44c-3.1-13.1-21.8-26.7-21.8-26.7
			s75.4,46.3,84.2,54.6c8.7,8.3,15.5,12.1,15.5,24c0,14.4-9.9,35-24.7,49.1L651.6,531.8l137.9,197.6c9.7,13.7,17,25.7,21.9,36
			c4.9,10.3,7.3,20.3,7.3,30c0,10.8-4.3,20.2-12.8,28.2c-8.5,8-20.1,11.9-34.6,11.9c-13.7,0-24.9-2.9-33.5-8.8
			c-8.6-5.9-15.9-13.6-21.9-23.4c-6-9.7-11.3-18.6-15.9-26.5l-116.4-179L503.1,675v100.5c0,20.3-4.6,35.4-13.9,45.3
			c-9.3,9.8-15.3,14.2-29.9,14.2c-8.4,0-22.1-2.1-30.1-6c-90.7-44.2-89.4-64.2-89.4-64.2s32.5,21,50.8,18.8
			c12-1.5,14.1-14,14.1-29.5V392.5c0-19.9,4.4-34.8,13.1-44.8c8.7-9.9,20.6-14.9,35.6-14.9c14.8,0,26.8,4.9,36,14.8
			C498.5,357.4,503.1,372.4,503.1,392.5z"/>
	</g>
	<path id="XMLID_186_" fill="#322D4C" d="M681.9,336l1.2-3.3c3-7.8-1.6-16.4-10.2-19.1L596,289.3c-8.6-2.7-18,1.5-21,9.3l-1.2,3.3
		c-3,7.8,1.6,16.4,10.2,19.1l76.9,24.3C669.4,348,678.9,343.8,681.9,336z"/>
	<polygon id="XMLID_185_" fill="#322D4C" points="570.6,310.8 577.8,292 522.3,274.5 515.1,293.3 	"/>
	<path id="XMLID_184_" fill="#322D4C" d="M486.6,319.5l1.6-4.3c1.1-2.9-0.6-6.2-3.8-7.2l-11.8-3.7c-3.2-1-6.8,0.6-7.9,3.5l-1.6,4.3
		c-1.1,2.9,0.6,6.2,3.8,7.2l11.8,3.7C481.9,324,485.4,322.5,486.6,319.5z"/>
	<path id="XMLID_183_" fill="#322D4C" d="M520.6,270.3l-10.5,27.5l-15.7-5l-5.1,13.5l-18.9-6l0.5-14.9l10.5-27.5
		c0,0,13.7-29.9,38.7-30.7c25.1-0.8,1.7,0.6-3.9,7.8c-5.7,7.2-18.9,25.6-12,29.8L520.6,270.3z"/>
	<line id="XMLID_182_" fill="#322D4C" x1="528.6" y1="287" x2="568.4" y2="299.6"/>
	<line id="XMLID_181_" fill="none" x1="680.1" y1="324.2" x2="673" y2="343.1"/>
	<polyline id="XMLID_180_" fill="#322D4C" points="503.7,268.6 515,272.2 509.4,286.8 	"/>
	<path id="XMLID_179_" fill="#322D4C" d="M320.6,676.9h-9.4c-4.8,0-8.8-3.9-8.8-8.8v-81.9h26.9v81.9
		C329.4,673,325.5,676.9,320.6,676.9z"/>
	<path id="XMLID_178_" fill="#322D4C" d="M330.1,586.2h-28.3c-2.1,0-3.8-1.7-3.8-3.8v-4.1c0-2.1,1.7-3.8,3.8-3.8h28.3
		c2.1,0,3.8,1.7,3.8,3.8v4.1C333.9,584.5,332.2,586.2,330.1,586.2z"/>
	<path id="XMLID_177_" fill="#322D4C" d="M324.7,574.5h-17.5v-30.2c0-3.2,2.6-5.7,5.7-5.7h6.1c3.2,0,5.7,2.6,5.7,5.7V574.5z"/>
	<path id="XMLID_176_" fill="#322D4C" d="M307.2,556.5l-37.7-10.7c-4.5-1.3-7-6.1-5.4-10.5l47.9-136.2c1.3-3.8,6.8-3.8,8.1,0v0
		l0.7,1.9l47.2,134.3c1.5,4.4-0.9,9.2-5.4,10.5l-37.7,10.7"/>
	<path id="XMLID_92_" fill="#322D4C" d="M292.8,544.3l-15.9-4.4c-2.8-0.8-4.4-3.8-3.5-6.6l35.9-104"/>
	<path id="XMLID_91_" fill="#322D4C" d="M308.7,596.8v69c0,3,2.5,5.5,5.5,5.5h3.3"/>
</g>
</svg>
